<mxfile host="app.diagrams.net" modified="2023-12-18T08:43:55.464Z" agent="Mozilla/5.0 (Windows NT 10.0; Win64; x64; rv:120.0) Gecko/20100101 Firefox/120.0" etag="csdFpaA8lBxrVbj6WSKk" version="22.1.11" type="device">
  <diagram name="Page-1" id="55a83fd1-7818-8e21-69c5-c3457e3827bb">
    <mxGraphModel dx="1050" dy="558" grid="1" gridSize="10" guides="1" tooltips="1" connect="1" arrows="1" fold="1" page="1" pageScale="1" pageWidth="1100" pageHeight="850" background="none" math="0" shadow="0">
      <root>
        <mxCell id="0" />
        <mxCell id="1" parent="0" />
        <mxCell id="I2UD4_jPKSJrJxbRWVcJ-32" style="edgeStyle=orthogonalEdgeStyle;rounded=0;orthogonalLoop=1;jettySize=auto;html=1;entryX=0.5;entryY=0;entryDx=0;entryDy=0;endArrow=none;endFill=0;" parent="1" source="69ecfefc5c41e42c-2" target="69ecfefc5c41e42c-3" edge="1">
          <mxGeometry relative="1" as="geometry">
            <Array as="points">
              <mxPoint x="480" y="70" />
            </Array>
          </mxGeometry>
        </mxCell>
        <mxCell id="69ecfefc5c41e42c-2" value="Internet" style="image;html=1;labelBackgroundColor=#ffffff;image=img/lib/clip_art/networking/Cloud_128x128.png;rounded=1;shadow=0;comic=0;strokeWidth=2;fontSize=22;labelPosition=center;verticalLabelPosition=top;align=center;verticalAlign=bottom;" parent="1" vertex="1">
          <mxGeometry x="160" y="30" width="80" height="80" as="geometry" />
        </mxCell>
        <mxCell id="69ecfefc5c41e42c-3" value="Netgate 1" style="image;html=1;labelBackgroundColor=#ffffff;image=img/lib/clip_art/networking/Firewall_128x128.png;rounded=1;shadow=0;comic=0;strokeWidth=2;fontSize=22;labelPosition=left;verticalLabelPosition=middle;align=right;verticalAlign=middle;" parent="1" vertex="1">
          <mxGeometry x="440" y="160" width="80" height="80" as="geometry" />
        </mxCell>
        <mxCell id="I2UD4_jPKSJrJxbRWVcJ-2" value="Azure" style="image;html=1;labelBackgroundColor=#ffffff;image=img/lib/clip_art/networking/Cloud_128x128.png;rounded=1;shadow=0;comic=0;strokeWidth=2;fontSize=22;labelPosition=center;verticalLabelPosition=top;align=center;verticalAlign=bottom;" parent="1" vertex="1">
          <mxGeometry x="860" y="30" width="80" height="80" as="geometry" />
        </mxCell>
        <mxCell id="I2UD4_jPKSJrJxbRWVcJ-5" style="edgeStyle=orthogonalEdgeStyle;rounded=0;orthogonalLoop=1;jettySize=auto;html=1;endArrow=none;endFill=0;exitX=0;exitY=0.5;exitDx=0;exitDy=0;shape=link;strokeWidth=4;strokeColor=#006EAF;fillColor=#1ba1e2;targetPerimeterSpacing=0;endSize=6;verticalAlign=bottom;labelPosition=center;verticalLabelPosition=top;align=center;fontSize=22;horizontal=1;" parent="1" source="I2UD4_jPKSJrJxbRWVcJ-2" target="69ecfefc5c41e42c-3" edge="1">
          <mxGeometry relative="1" as="geometry">
            <mxPoint x="690" y="70" as="sourcePoint" />
          </mxGeometry>
        </mxCell>
        <mxCell id="I2UD4_jPKSJrJxbRWVcJ-13" style="edgeStyle=orthogonalEdgeStyle;rounded=0;orthogonalLoop=1;jettySize=auto;html=1;entryX=1;entryY=0.5;entryDx=0;entryDy=0;endArrow=none;endFill=0;exitX=0;exitY=0.25;exitDx=0;exitDy=0;" parent="1" source="I2UD4_jPKSJrJxbRWVcJ-8" target="I2UD4_jPKSJrJxbRWVcJ-11" edge="1">
          <mxGeometry relative="1" as="geometry" />
        </mxCell>
        <mxCell id="I2UD4_jPKSJrJxbRWVcJ-14" style="edgeStyle=orthogonalEdgeStyle;rounded=0;orthogonalLoop=1;jettySize=auto;html=1;entryX=1;entryY=0.5;entryDx=0;entryDy=0;endArrow=none;endFill=0;exitX=0;exitY=0.75;exitDx=0;exitDy=0;" parent="1" source="I2UD4_jPKSJrJxbRWVcJ-8" target="I2UD4_jPKSJrJxbRWVcJ-10" edge="1">
          <mxGeometry relative="1" as="geometry" />
        </mxCell>
        <mxCell id="I2UD4_jPKSJrJxbRWVcJ-18" style="edgeStyle=orthogonalEdgeStyle;rounded=0;orthogonalLoop=1;jettySize=auto;html=1;entryX=0;entryY=0.5;entryDx=0;entryDy=0;endArrow=none;endFill=0;exitX=1;exitY=0.75;exitDx=0;exitDy=0;" parent="1" source="I2UD4_jPKSJrJxbRWVcJ-8" target="I2UD4_jPKSJrJxbRWVcJ-16" edge="1">
          <mxGeometry relative="1" as="geometry" />
        </mxCell>
        <mxCell id="I2UD4_jPKSJrJxbRWVcJ-19" style="edgeStyle=orthogonalEdgeStyle;rounded=0;orthogonalLoop=1;jettySize=auto;html=1;entryX=0;entryY=0.5;entryDx=0;entryDy=0;endArrow=none;endFill=0;exitX=1;exitY=0.25;exitDx=0;exitDy=0;" parent="1" source="I2UD4_jPKSJrJxbRWVcJ-8" target="I2UD4_jPKSJrJxbRWVcJ-17" edge="1">
          <mxGeometry relative="1" as="geometry" />
        </mxCell>
        <mxCell id="I2UD4_jPKSJrJxbRWVcJ-33" style="edgeStyle=orthogonalEdgeStyle;rounded=0;orthogonalLoop=1;jettySize=auto;html=1;entryX=0.5;entryY=1;entryDx=0;entryDy=0;endArrow=none;endFill=0;exitX=0.25;exitY=0;exitDx=0;exitDy=0;" parent="1" source="I2UD4_jPKSJrJxbRWVcJ-8" target="69ecfefc5c41e42c-3" edge="1">
          <mxGeometry relative="1" as="geometry" />
        </mxCell>
        <mxCell id="I2UD4_jPKSJrJxbRWVcJ-8" value="Router Harderwijk" style="image;html=1;image=img/lib/clip_art/networking/Router_128x128.png;verticalAlign=top;fontSize=22;labelPosition=center;verticalLabelPosition=bottom;align=center;" parent="1" vertex="1">
          <mxGeometry x="510" y="345" width="80" height="80" as="geometry" />
        </mxCell>
        <mxCell id="I2UD4_jPKSJrJxbRWVcJ-28" style="edgeStyle=orthogonalEdgeStyle;rounded=0;orthogonalLoop=1;jettySize=auto;html=1;entryX=0;entryY=0.5;entryDx=0;entryDy=0;endArrow=none;endFill=0;" parent="1" source="I2UD4_jPKSJrJxbRWVcJ-9" target="I2UD4_jPKSJrJxbRWVcJ-11" edge="1">
          <mxGeometry relative="1" as="geometry">
            <Array as="points">
              <mxPoint x="201" y="308" />
            </Array>
          </mxGeometry>
        </mxCell>
        <mxCell id="I2UD4_jPKSJrJxbRWVcJ-9" value="WLC" style="image;html=1;image=img/lib/clip_art/networking/Wireless_Router_N_128x128.png;fontSize=22;labelPosition=center;verticalLabelPosition=top;align=center;verticalAlign=bottom;" parent="1" vertex="1">
          <mxGeometry x="71.25" y="255" width="80" height="80" as="geometry" />
        </mxCell>
        <mxCell id="I2UD4_jPKSJrJxbRWVcJ-30" style="edgeStyle=orthogonalEdgeStyle;rounded=0;orthogonalLoop=1;jettySize=auto;html=1;entryX=0.5;entryY=1;entryDx=0;entryDy=0;endArrow=none;endFill=0;" parent="1" source="I2UD4_jPKSJrJxbRWVcJ-10" target="I2UD4_jPKSJrJxbRWVcJ-11" edge="1">
          <mxGeometry relative="1" as="geometry" />
        </mxCell>
        <mxCell id="I2UD4_jPKSJrJxbRWVcJ-10" value="Switch 2" style="image;html=1;image=img/lib/clip_art/networking/Switch_128x128.png;fontSize=22;labelPosition=center;verticalLabelPosition=bottom;align=center;verticalAlign=top;" parent="1" vertex="1">
          <mxGeometry x="250" y="422.5" width="80" height="80" as="geometry" />
        </mxCell>
        <mxCell id="I2UD4_jPKSJrJxbRWVcJ-11" value="Switch 1" style="image;html=1;image=img/lib/clip_art/networking/Switch_128x128.png;fontSize=22;labelPosition=center;verticalLabelPosition=top;align=center;verticalAlign=bottom;" parent="1" vertex="1">
          <mxGeometry x="250" y="267.5" width="80" height="80" as="geometry" />
        </mxCell>
        <mxCell id="I2UD4_jPKSJrJxbRWVcJ-21" style="edgeStyle=orthogonalEdgeStyle;rounded=0;orthogonalLoop=1;jettySize=auto;html=1;entryX=0.5;entryY=1;entryDx=0;entryDy=0;endArrow=none;endFill=0;" parent="1" source="I2UD4_jPKSJrJxbRWVcJ-16" target="I2UD4_jPKSJrJxbRWVcJ-17" edge="1">
          <mxGeometry relative="1" as="geometry" />
        </mxCell>
        <mxCell id="I2UD4_jPKSJrJxbRWVcJ-16" value="Router Putten" style="image;html=1;image=img/lib/clip_art/networking/Router_128x128.png;fontSize=22;labelPosition=center;verticalLabelPosition=bottom;align=center;verticalAlign=top;" parent="1" vertex="1">
          <mxGeometry x="760" y="422.5" width="80" height="80" as="geometry" />
        </mxCell>
        <mxCell id="I2UD4_jPKSJrJxbRWVcJ-17" value="Router Nunspeet" style="image;html=1;image=img/lib/clip_art/networking/Router_128x128.png;fontSize=22;labelPosition=center;verticalLabelPosition=top;align=center;verticalAlign=bottom;" parent="1" vertex="1">
          <mxGeometry x="760" y="267.5" width="80" height="80" as="geometry" />
        </mxCell>
        <mxCell id="I2UD4_jPKSJrJxbRWVcJ-37" value="&lt;font style=&quot;font-size: 22px;&quot;&gt;VPN Tunnel&lt;/font&gt;" style="text;html=1;align=center;verticalAlign=middle;resizable=0;points=[];autosize=1;strokeColor=none;fillColor=none;" parent="1" vertex="1">
          <mxGeometry x="680" y="30" width="140" height="40" as="geometry" />
        </mxCell>
        <mxCell id="I2UD4_jPKSJrJxbRWVcJ-38" value="gi1" style="text;html=1;align=center;verticalAlign=middle;resizable=0;points=[];autosize=1;strokeColor=none;fillColor=none;" parent="1" vertex="1">
          <mxGeometry x="320" y="280" width="40" height="30" as="geometry" />
        </mxCell>
        <mxCell id="I2UD4_jPKSJrJxbRWVcJ-39" value="gi0/0/0.101" style="text;html=1;align=center;verticalAlign=middle;resizable=0;points=[];autosize=1;strokeColor=none;fillColor=none;" parent="1" vertex="1">
          <mxGeometry x="580" y="400" width="80" height="30" as="geometry" />
        </mxCell>
        <mxCell id="I2UD4_jPKSJrJxbRWVcJ-40" value="gi0/0/1.100" style="text;html=1;align=center;verticalAlign=middle;resizable=0;points=[];autosize=1;strokeColor=none;fillColor=none;" parent="1" vertex="1">
          <mxGeometry x="580" y="340" width="80" height="30" as="geometry" />
        </mxCell>
        <mxCell id="I2UD4_jPKSJrJxbRWVcJ-41" value="gi0/0/0.101" style="text;html=1;align=center;verticalAlign=middle;resizable=0;points=[];autosize=1;strokeColor=none;fillColor=none;" parent="1" vertex="1">
          <mxGeometry x="690" y="468" width="80" height="30" as="geometry" />
        </mxCell>
        <mxCell id="I2UD4_jPKSJrJxbRWVcJ-42" value="gi0/0/1.100" style="text;html=1;align=center;verticalAlign=middle;resizable=0;points=[];autosize=1;strokeColor=none;fillColor=none;" parent="1" vertex="1">
          <mxGeometry x="690" y="280" width="80" height="30" as="geometry" />
        </mxCell>
        <mxCell id="I2UD4_jPKSJrJxbRWVcJ-43" value="gi0/0/1.102" style="text;html=1;align=center;verticalAlign=middle;resizable=0;points=[];autosize=1;strokeColor=none;fillColor=none;" parent="1" vertex="1">
          <mxGeometry x="800" y="410" width="80" height="30" as="geometry" />
        </mxCell>
        <mxCell id="I2UD4_jPKSJrJxbRWVcJ-44" value="gi0/0/0.102" style="text;html=1;align=center;verticalAlign=middle;resizable=0;points=[];autosize=1;strokeColor=none;fillColor=none;" parent="1" vertex="1">
          <mxGeometry x="800" y="328" width="80" height="30" as="geometry" />
        </mxCell>
        <mxCell id="I2UD4_jPKSJrJxbRWVcJ-45" value="gi0/1/0" style="text;html=1;align=center;verticalAlign=middle;resizable=0;points=[];autosize=1;strokeColor=none;fillColor=none;" parent="1" vertex="1">
          <mxGeometry x="460" y="340" width="60" height="30" as="geometry" />
        </mxCell>
        <mxCell id="I2UD4_jPKSJrJxbRWVcJ-46" value="gi0/1/1" style="text;html=1;align=center;verticalAlign=middle;resizable=0;points=[];autosize=1;strokeColor=none;fillColor=none;" parent="1" vertex="1">
          <mxGeometry x="460" y="400" width="60" height="30" as="geometry" />
        </mxCell>
        <mxCell id="I2UD4_jPKSJrJxbRWVcJ-47" value="gi1" style="text;html=1;align=center;verticalAlign=middle;resizable=0;points=[];autosize=1;strokeColor=none;fillColor=none;" parent="1" vertex="1">
          <mxGeometry x="320" y="438" width="40" height="30" as="geometry" />
        </mxCell>
        <mxCell id="I2UD4_jPKSJrJxbRWVcJ-48" value="gi2" style="text;html=1;align=center;verticalAlign=middle;resizable=0;points=[];autosize=1;strokeColor=none;fillColor=none;" parent="1" vertex="1">
          <mxGeometry x="290" y="408" width="40" height="30" as="geometry" />
        </mxCell>
        <mxCell id="I2UD4_jPKSJrJxbRWVcJ-49" value="gi2" style="text;html=1;align=center;verticalAlign=middle;resizable=0;points=[];autosize=1;strokeColor=none;fillColor=none;" parent="1" vertex="1">
          <mxGeometry x="290" y="328" width="40" height="30" as="geometry" />
        </mxCell>
        <mxCell id="I2UD4_jPKSJrJxbRWVcJ-50" value="gi3" style="text;html=1;align=center;verticalAlign=middle;resizable=0;points=[];autosize=1;strokeColor=none;fillColor=none;" parent="1" vertex="1">
          <mxGeometry x="220" y="280" width="40" height="30" as="geometry" />
        </mxCell>
        <mxCell id="I2UD4_jPKSJrJxbRWVcJ-51" value="poort 1" style="text;html=1;align=center;verticalAlign=middle;resizable=0;points=[];autosize=1;strokeColor=none;fillColor=none;" parent="1" vertex="1">
          <mxGeometry x="140" y="280" width="60" height="30" as="geometry" />
        </mxCell>
        <mxCell id="I2UD4_jPKSJrJxbRWVcJ-52" value="gi0/1/2" style="text;html=1;align=center;verticalAlign=middle;resizable=0;points=[];autosize=1;strokeColor=none;fillColor=none;" parent="1" vertex="1">
          <mxGeometry x="480" y="315" width="60" height="30" as="geometry" />
        </mxCell>
        <mxCell id="I2UD4_jPKSJrJxbRWVcJ-53" value="LAN" style="text;html=1;align=center;verticalAlign=middle;resizable=0;points=[];autosize=1;strokeColor=none;fillColor=none;" parent="1" vertex="1">
          <mxGeometry x="470" y="230" width="50" height="30" as="geometry" />
        </mxCell>
        <mxCell id="I2UD4_jPKSJrJxbRWVcJ-54" value="WAN" style="text;html=1;align=center;verticalAlign=middle;resizable=0;points=[];autosize=1;strokeColor=none;fillColor=none;" parent="1" vertex="1">
          <mxGeometry x="485" y="140" width="50" height="30" as="geometry" />
        </mxCell>
        <mxCell id="I2UD4_jPKSJrJxbRWVcJ-55" value="WAN" style="text;html=1;align=center;verticalAlign=middle;resizable=0;points=[];autosize=1;strokeColor=none;fillColor=none;" parent="1" vertex="1">
          <mxGeometry x="570" y="140" width="50" height="30" as="geometry" />
        </mxCell>
        <mxCell id="I2UD4_jPKSJrJxbRWVcJ-57" style="edgeStyle=orthogonalEdgeStyle;rounded=0;orthogonalLoop=1;jettySize=auto;html=1;entryX=0.5;entryY=1;entryDx=0;entryDy=0;endArrow=none;endFill=0;" parent="1" source="I2UD4_jPKSJrJxbRWVcJ-56" target="I2UD4_jPKSJrJxbRWVcJ-9" edge="1">
          <mxGeometry relative="1" as="geometry" />
        </mxCell>
        <mxCell id="I2UD4_jPKSJrJxbRWVcJ-56" value="Access Point" style="html=1;verticalLabelPosition=bottom;align=center;labelBackgroundColor=#ffffff;verticalAlign=top;strokeWidth=2;strokeColor=#0080F0;shadow=0;dashed=0;shape=mxgraph.ios7.icons.wifi;pointerEvents=1;fontSize=22;" parent="1" vertex="1">
          <mxGeometry x="72.5" y="437.5" width="77.5" height="50" as="geometry" />
        </mxCell>
        <mxCell id="I2UD4_jPKSJrJxbRWVcJ-58" value="poort 3" style="text;html=1;align=center;verticalAlign=middle;resizable=0;points=[];autosize=1;strokeColor=none;fillColor=none;" parent="1" vertex="1">
          <mxGeometry x="110" y="328" width="60" height="30" as="geometry" />
        </mxCell>
        <mxCell id="I2UD4_jPKSJrJxbRWVcJ-59" value="poort 1" style="text;html=1;align=center;verticalAlign=middle;resizable=0;points=[];autosize=1;strokeColor=none;fillColor=none;" parent="1" vertex="1">
          <mxGeometry x="110" y="407.5" width="60" height="30" as="geometry" />
        </mxCell>
        <mxCell id="I2UD4_jPKSJrJxbRWVcJ-61" style="edgeStyle=orthogonalEdgeStyle;rounded=0;orthogonalLoop=1;jettySize=auto;html=1;entryX=0.75;entryY=0;entryDx=0;entryDy=0;endArrow=none;endFill=0;" parent="1" source="I2UD4_jPKSJrJxbRWVcJ-60" target="I2UD4_jPKSJrJxbRWVcJ-8" edge="1">
          <mxGeometry relative="1" as="geometry" />
        </mxCell>
        <mxCell id="I2UD4_jPKSJrJxbRWVcJ-64" style="edgeStyle=orthogonalEdgeStyle;rounded=0;orthogonalLoop=1;jettySize=auto;html=1;entryX=1;entryY=0.5;entryDx=0;entryDy=0;endArrow=none;endFill=0;" parent="1" source="I2UD4_jPKSJrJxbRWVcJ-60" target="69ecfefc5c41e42c-2" edge="1">
          <mxGeometry relative="1" as="geometry">
            <Array as="points">
              <mxPoint x="620" y="70" />
            </Array>
          </mxGeometry>
        </mxCell>
        <mxCell id="I2UD4_jPKSJrJxbRWVcJ-65" style="edgeStyle=orthogonalEdgeStyle;rounded=0;orthogonalLoop=1;jettySize=auto;html=1;entryX=0;entryY=0.5;entryDx=0;entryDy=0;shape=link;fillColor=#1ba1e2;strokeColor=#006EAF;strokeWidth=5;" parent="1" source="I2UD4_jPKSJrJxbRWVcJ-60" target="I2UD4_jPKSJrJxbRWVcJ-2" edge="1">
          <mxGeometry relative="1" as="geometry">
            <Array as="points">
              <mxPoint x="620" y="70" />
            </Array>
          </mxGeometry>
        </mxCell>
        <mxCell id="I2UD4_jPKSJrJxbRWVcJ-60" value="Netgate 2" style="image;html=1;labelBackgroundColor=#ffffff;image=img/lib/clip_art/networking/Firewall_128x128.png;rounded=1;shadow=0;comic=0;strokeWidth=2;fontSize=22;labelPosition=right;verticalLabelPosition=middle;align=left;verticalAlign=middle;" parent="1" vertex="1">
          <mxGeometry x="580" y="160" width="80" height="80" as="geometry" />
        </mxCell>
        <mxCell id="I2UD4_jPKSJrJxbRWVcJ-62" value="gi0/1/3" style="text;html=1;align=center;verticalAlign=middle;resizable=0;points=[];autosize=1;strokeColor=none;fillColor=none;" parent="1" vertex="1">
          <mxGeometry x="560" y="315" width="60" height="30" as="geometry" />
        </mxCell>
        <mxCell id="I2UD4_jPKSJrJxbRWVcJ-63" value="LAN" style="text;html=1;align=center;verticalAlign=middle;resizable=0;points=[];autosize=1;strokeColor=none;fillColor=none;" parent="1" vertex="1">
          <mxGeometry x="580" y="230" width="50" height="30" as="geometry" />
        </mxCell>
      </root>
    </mxGraphModel>
  </diagram>
</mxfile>
